<svg width="18" height="19" viewBox="0 0 18 19" fill="none" xmlns="http://www.w3.org/2000/svg">
<path fill-rule="evenodd" clip-rule="evenodd" d="M6.99993 1.64626C7.21304 1.29108 7.09787 0.819376 6.74268 0.606264C6.3875 0.393153 5.9268 0.511077 5.71369 0.866262L2.99993 6.5H0.594372C0.283982 6.5 0.0485904 6.77985 0.101763 7.08565L1.6397 15.9305C1.84792 17.128 2.88727 18.0022 4.10274 18.0022H13.8971C15.1126 18.0022 16.1519 17.128 16.3602 15.9305L17.8981 7.08565C17.9513 6.77985 17.7159 6.5 17.4055 6.5H14.9999L12.2862 0.866262C12.0731 0.511077 11.6124 0.393147 11.2572 0.606258C10.902 0.819369 10.7868 1.29108 10.9999 1.64626L13.2506 6.5H4.74922L6.99993 1.64626ZM6.25 10C6.25 9.58579 5.91421 9.25 5.5 9.25C5.08579 9.25 4.75 9.58579 4.75 10V14C4.75 14.4142 5.08579 14.75 5.5 14.75C5.91421 14.75 6.25 14.4142 6.25 14V10ZM9.75 10C9.75 9.58579 9.41421 9.25 9 9.25C8.58579 9.25 8.25 9.58579 8.25 10V14C8.25 14.4142 8.58579 14.75 9 14.75C9.41421 14.75 9.75 14.4142 9.75 14V10ZM13.25 10C13.25 9.58579 12.9142 9.25 12.5 9.25C12.0858 9.25 11.75 9.58579 11.75 10V14C11.75 14.4142 12.0858 14.75 12.5 14.75C12.9142 14.75 13.25 14.4142 13.25 14V10Z" fill="black"/>
</svg>
