<svg width="138" height="60" viewBox="0 0 138 60" fill="none" xmlns="http://www.w3.org/2000/svg">
<rect y="34" width="26" height="26" fill="#00B67A"/>
<path fill-rule="evenodd" clip-rule="evenodd" d="M15.3399 44.3521H22.0999L16.5749 48.7395L13.0911 51.2546L13 51.2772L13.0301 51.2986L12.9999 51.3204L7.2149 55.4498L9.4249 48.7395L3.8999 44.3521H10.6599L12.9999 37.8999L15.3399 44.3521ZM13.0301 51.2986L18.85 55.45L17.141 50.25L13.0911 51.2546L13.0301 51.2986Z" fill="white"/>
<rect x="28" y="34" width="26" height="26" fill="#00B67A"/>
<path fill-rule="evenodd" clip-rule="evenodd" d="M43.3399 44.3521H50.0999L44.5749 48.7395L41.0911 51.2546L41 51.2772L41.0301 51.2986L40.9999 51.3204L35.2149 55.4498L37.4249 48.7395L31.8999 44.3521H38.6599L40.9999 37.8999L43.3399 44.3521ZM41.0301 51.2986L46.85 55.45L45.141 50.25L41.0911 51.2546L41.0301 51.2986Z" fill="white"/>
<rect x="56" y="34" width="26" height="26" fill="#00B67A"/>
<path fill-rule="evenodd" clip-rule="evenodd" d="M71.3399 44.3521H78.0999L72.5749 48.7395L69.0911 51.2546L69 51.2772L69.0301 51.2986L68.9999 51.3204L63.2149 55.4498L65.4249 48.7395L59.8999 44.3521H66.6599L68.9999 37.8999L71.3399 44.3521ZM69.0301 51.2986L74.85 55.45L73.141 50.25L69.0911 51.2546L69.0301 51.2986Z" fill="white"/>
<rect x="84" y="34" width="26" height="26" fill="#00B67A"/>
<path fill-rule="evenodd" clip-rule="evenodd" d="M99.3399 44.3521H106.1L100.575 48.7395L97.0911 51.2546L97 51.2772L97.0301 51.2986L96.9999 51.3204L91.2149 55.4498L93.4249 48.7395L87.8999 44.3521H94.6599L96.9999 37.8999L99.3399 44.3521ZM97.0301 51.2986L102.85 55.45L101.141 50.25L97.0911 51.2546L97.0301 51.2986Z" fill="white"/>
<rect x="112" y="34" width="26" height="26" fill="#00B67A" style="mix-blend-mode:multiply"/>
<rect x="112" y="34" width="13" height="26" fill="#00B67A"/>
<path fill-rule="evenodd" clip-rule="evenodd" d="M127.34 44.3521H134.1L128.575 48.7395L125.091 51.2546L125 51.2772L125.03 51.2986L125 51.3204L119.215 55.4498L121.425 48.7395L115.9 44.3521H122.66L125 37.8999L127.34 44.3521ZM125.03 51.2986L130.85 55.45L129.141 50.25L125.091 51.2546L125.03 51.2986Z" fill="white"/>
<path fill-rule="evenodd" clip-rule="evenodd" d="M103.251 10.8947H105.728V13.2779H103.251V10.8947ZM39.5902 10.8947H52.1422V13.2779H47.1889V26.5558H44.4872V13.2212H39.5902V10.8947ZM51.7486 15.2073H53.8875V17.4203H53.9437C54.0242 17.0873 54.1781 16.777 54.394 16.5124C54.6128 16.2067 54.8789 15.9385 55.1821 15.718C55.4793 15.4632 55.8236 15.2703 56.1952 15.1505C56.5481 14.9886 56.9334 14.9109 57.321 14.9236H57.9401C57.9964 14.9236 58.0527 14.9377 58.109 14.9519C58.1653 14.9661 58.2215 14.9803 58.2778 14.9803V17.3635C58.1132 17.3167 57.9421 17.2975 57.7712 17.3068C57.6868 17.3068 57.6024 17.2926 57.518 17.2784C57.4335 17.2642 57.3491 17.25 57.2647 17.25C56.8593 17.2427 56.4569 17.32 56.0826 17.477C55.7072 17.6379 55.3781 17.8916 55.1258 18.2147C54.8355 18.5706 54.6071 18.9735 54.4503 19.4063C54.2812 19.9375 54.205 20.4943 54.2252 21.0518V26.4424H51.7486V15.2073ZM67.1147 26.4988H69.535V15.2069H67.0584V21.7892C67.0615 22.2113 67.0046 22.6316 66.8895 23.0375C66.8333 23.3956 66.6772 23.7302 66.4392 24.0021C66.1928 24.2544 65.9077 24.4652 65.5949 24.6263C65.1857 24.7986 64.7433 24.8762 64.3003 24.8533C63.7118 24.8752 63.1407 24.649 62.7243 24.2291C62.3303 23.8319 62.1614 23.151 62.1614 22.1296V15.2069H59.6285V22.2998C59.6285 23.7752 59.9663 24.91 60.6417 25.6477C61.3171 26.3854 62.3866 26.7826 63.85 26.7826C64.5021 26.7737 65.1413 26.598 65.7075 26.2719C66.2877 25.971 66.76 25.4949 67.0584 24.91H67.1147V26.4988ZM73.7568 22.8675C73.7494 23.4929 74.0705 24.0756 74.6011 24.3996C75.113 24.702 75.6965 24.8588 76.2897 24.8535C76.5536 24.861 76.8176 24.842 77.0778 24.7968C77.3656 24.7478 77.6483 24.6718 77.9221 24.5698C78.1698 24.4863 78.386 24.3277 78.5412 24.1159C78.7149 23.8902 78.7956 23.6056 78.7664 23.3215C78.7747 23.0196 78.6513 22.7292 78.4287 22.5271C78.1909 22.2924 77.9016 22.1174 77.5844 22.0164C77.2466 21.9029 76.8526 21.7894 76.4023 21.6759C76.1772 21.6192 75.952 21.5766 75.7269 21.5341C75.5017 21.4915 75.2766 21.4489 75.0514 21.3922C74.594 21.2861 74.1429 21.1534 73.7006 20.995C73.3041 20.852 72.9261 20.6615 72.5748 20.4276C72.2258 20.1888 71.9523 19.854 71.7868 19.4629C71.5697 19.0237 71.4725 18.534 71.5054 18.0444C71.491 17.4985 71.6487 16.9621 71.9557 16.5123C72.2615 16.1013 72.6439 15.7544 73.0814 15.4909C73.5527 15.2284 74.0678 15.0553 74.6011 14.9802C75.1195 14.8705 75.6475 14.8134 76.1772 14.81C76.7442 14.8104 77.3099 14.8674 77.8658 14.9802C78.3706 15.094 78.8486 15.3061 79.273 15.6044C79.7089 15.8736 80.0754 16.2431 80.3424 16.6825C80.6357 17.1633 80.8094 17.7083 80.849 18.2713H78.2598C78.2188 17.7636 77.9209 17.3131 77.4718 17.0797C77.0141 16.8664 76.5118 16.769 76.0083 16.796C75.8004 16.7891 75.5924 16.8082 75.3892 16.8527C75.1582 16.8826 74.9315 16.9397 74.7137 17.023C74.5078 17.0667 74.3264 17.1886 74.2071 17.3634C74.043 17.5269 73.9603 17.756 73.982 17.9876C73.9741 18.2732 74.099 18.546 74.3197 18.7253C74.5751 18.9214 74.8602 19.0747 75.164 19.1792C75.5017 19.2927 75.8957 19.4062 76.346 19.5197C76.5712 19.5764 76.7963 19.619 77.0215 19.6615C77.2466 19.7041 77.4718 19.7466 77.6969 19.8034C78.1544 19.9095 78.6055 20.0422 79.0478 20.2006C79.4619 20.3439 79.8585 20.5342 80.2298 20.768C80.5811 21.0198 80.87 21.3499 81.0741 21.7327C81.3107 22.1665 81.4273 22.6564 81.4119 23.1512C81.4248 23.7502 81.2686 24.3406 80.9616 24.8535C80.6697 25.327 80.2629 25.7176 79.7795 25.9884C79.2745 26.2882 78.7225 26.4993 78.1472 26.6126C77.5719 26.7227 76.9879 26.7797 76.4023 26.7828C75.7384 26.798 75.0756 26.7217 74.4323 26.5558C73.8646 26.4149 73.3294 26.1644 72.8563 25.8182C72.4139 25.4855 72.0489 25.0594 71.7868 24.5698C71.5315 24.0189 71.3971 23.4189 71.3928 22.8108H73.7568V22.8675ZM83.7755 15.2073H81.9743V17.0798H83.8318V23.8323C83.8361 24.2507 83.8737 24.6682 83.9443 25.0806C84.001 25.4218 84.1578 25.7381 84.3946 25.9885C84.6471 26.2736 84.9816 26.472 85.3515 26.5559C85.8667 26.6847 86.3969 26.742 86.9275 26.7262C87.1915 26.7355 87.4556 26.7165 87.7155 26.6694C87.8337 26.6396 87.9674 26.6255 88.1085 26.6106C88.2362 26.597 88.3699 26.5829 88.5036 26.5559V24.6267C88.4191 24.6267 88.3347 24.6408 88.2503 24.655C88.1658 24.6692 88.0814 24.6834 87.997 24.6834H87.4904C87.2606 24.6831 87.0324 24.6448 86.815 24.5699C86.6791 24.5078 86.5624 24.4097 86.4772 24.2862C86.3645 24.1628 86.3039 24 86.3084 23.8323C86.2566 23.6093 86.2377 23.3799 86.2521 23.1513V17.0798H88.5036V15.2073H86.2521V11.8027H83.7755V15.2073ZM90.2486 15.2073H92.6126V16.7394H92.6689C92.9753 16.1072 93.4938 15.6046 94.1324 15.3208C94.7675 15.024 95.4587 14.8691 96.1587 14.8668C96.9506 14.8581 97.7359 15.0126 98.4665 15.3208C99.1018 15.6252 99.6601 16.0715 100.099 16.6259C100.56 17.1867 100.887 17.8467 101.056 18.5551C101.282 19.3095 101.396 20.0935 101.393 20.8816C101.383 21.6276 101.289 22.37 101.112 23.0946C100.951 23.7775 100.644 24.4167 100.211 24.9671C99.8149 25.5178 99.2939 25.9652 98.6916 26.2722C98.0323 26.6202 97.2969 26.7958 96.5527 26.7829C96.1939 26.7732 95.8363 26.7352 95.4833 26.6694C95.1125 26.6081 94.7523 26.4935 94.4138 26.329C93.7598 26.0285 93.1966 25.5586 92.7815 24.9671H92.7252V30.6414H90.2486V15.2073ZM98.748 19.406C98.8629 19.8892 98.9196 20.3845 98.9169 20.8814C98.9169 21.1083 98.9028 21.3495 98.8887 21.5907C98.8747 21.8318 98.8606 22.073 98.8606 22.2999C98.7554 22.749 98.5642 23.1731 98.2977 23.5483C98.0665 23.9329 97.7357 24.2468 97.3409 24.4562C96.9131 24.7014 96.4252 24.8195 95.9337 24.7966C95.4664 24.824 95.0004 24.7261 94.5828 24.5129C94.1971 24.2929 93.8539 24.0046 93.5696 23.6618C93.2649 23.3031 93.0523 22.8744 92.9505 22.4134C92.7892 21.8999 92.7132 21.3631 92.7253 20.8246C92.6871 19.8013 92.9623 18.7909 93.5134 17.9307C94.0699 17.1916 94.9593 16.786 95.8774 16.8526C96.3496 16.8438 96.8157 16.9613 97.2283 17.1931C97.6117 17.4183 97.939 17.7288 98.1852 18.1009C98.4296 18.5088 98.6189 18.9477 98.748 19.406ZM105.728 15.2069H103.251V26.5556H105.728V15.2069ZM107.979 10.8947H110.456V26.5558H107.979V10.8947ZM115.578 26.3854C116.349 26.688 117.17 26.842 117.998 26.8393C118.826 26.8474 119.648 26.6932 120.418 26.3854C121.101 26.1042 121.715 25.6785 122.22 25.137C122.742 24.6158 123.129 23.9726 123.345 23.2645C123.626 22.5027 123.76 21.6938 123.739 20.8813C123.755 20.0692 123.622 19.2611 123.345 18.4981C123.107 17.8002 122.723 17.1618 122.22 16.6256C121.704 16.0965 121.093 15.6727 120.418 15.3772C119.647 15.0746 118.826 14.9207 117.998 14.9233C117.17 14.9152 116.348 15.0694 115.578 15.3772C114.203 15.9464 113.138 17.0829 112.651 18.4981C112.375 19.2611 112.241 20.0692 112.257 20.8813C112.241 21.6934 112.375 22.5015 112.651 23.2645C112.889 23.9624 113.273 24.6008 113.777 25.137C114.292 25.6661 114.903 26.09 115.578 26.3854ZM117.998 24.8534C118.489 24.869 118.975 24.7514 119.405 24.5129C119.793 24.2725 120.136 23.9652 120.418 23.605C120.695 23.2151 120.887 22.7702 120.981 22.2999C121.096 21.8168 121.152 21.3215 121.15 20.8246C121.149 20.3467 121.093 19.8705 120.981 19.406C120.852 18.9477 120.662 18.5088 120.418 18.101C120.151 17.7263 119.805 17.4162 119.405 17.1931C118.972 16.9611 118.488 16.844 117.998 16.8526C117.507 16.837 117.021 16.9546 116.591 17.1931C116.19 17.4162 115.844 17.7263 115.577 18.101C115.3 18.4909 115.108 18.9358 115.015 19.406C114.903 19.8705 114.846 20.3467 114.846 20.8246C114.846 21.3213 114.903 21.8162 115.015 22.2999C115.144 22.7583 115.333 23.1972 115.577 23.605C115.844 23.9797 116.19 24.2898 116.591 24.5129C117.023 24.7449 117.508 24.862 117.998 24.8534ZM126.272 15.2069H124.414V17.0794H126.272V23.8319L126.272 23.8326C126.328 24.2863 126.385 24.74 126.441 25.0802C126.497 25.4215 126.654 25.7377 126.891 25.9881C127.144 26.2732 127.478 26.4716 127.848 26.5556C128.363 26.6843 128.893 26.7416 129.424 26.7258C129.688 26.7352 129.952 26.7161 130.212 26.669C130.33 26.6393 130.464 26.6251 130.605 26.6102C130.733 26.5967 130.866 26.5825 131 26.5556V24.6263C130.916 24.6263 130.831 24.6405 130.747 24.6547C130.662 24.6688 130.578 24.683 130.493 24.683H129.987C129.757 24.6827 129.529 24.6444 129.311 24.5695C129.176 24.5074 129.059 24.4094 128.974 24.2858C128.861 24.1624 128.8 23.9996 128.805 23.8319C128.753 23.6089 128.734 23.3795 128.749 23.151V17.0794H131V15.2069H128.749V11.8023H126.272V15.2069Z" fill="#031013"/>
<path d="M21.8597 0L18.37 10.8947H7L16.1748 17.5904L12.685 28.4851L21.8597 21.7326L31.0345 28.4851L27.5447 17.5904L36.7195 10.8947H25.3495L21.8597 0Z" fill="#00B67A"/>
<path d="M28.3326 20.0868L27.5446 17.5901L21.8596 21.7324L28.3326 20.0868Z" fill="#005128"/>
</svg>
