<svg width="206" height="82" viewBox="0 0 206 82" fill="none" xmlns="http://www.w3.org/2000/svg">
<path d="M39.6289 35.4062C39.6289 37.8555 38.7617 39.7949 37.0273 41.2246C35.293 42.6426 32.9434 43.3516 29.9785 43.3516C27.3887 43.3516 25.3027 42.8242 23.7207 41.7695V36.9531C25.9824 38.2188 28.0801 38.8516 30.0137 38.8516C31.3262 38.8516 32.3516 38.6055 33.0898 38.1133C33.8281 37.6094 34.1973 36.9238 34.1973 36.0566C34.1973 35.5527 34.1152 35.1133 33.9512 34.7383C33.7988 34.3516 33.5762 33.9941 33.2832 33.666C32.9902 33.3379 32.2637 32.7402 31.1035 31.873C29.4863 30.7129 28.3496 29.5645 27.6934 28.4277C27.0371 27.291 26.709 26.0664 26.709 24.7539C26.709 23.2422 27.0723 21.8945 27.7988 20.7109C28.5254 19.5156 29.5566 18.5898 30.8926 17.9336C32.2402 17.2656 33.7871 16.9316 35.5332 16.9316C38.0762 16.9316 40.4023 17.5117 42.5117 18.6719L40.5957 22.7676C38.7676 21.9004 37.0801 21.4668 35.5332 21.4668C34.5605 21.4668 33.7637 21.7305 33.1426 22.2578C32.5215 22.7852 32.2109 23.4824 32.2109 24.3496C32.2109 25.0645 32.4043 25.6914 32.791 26.2305C33.1777 26.7578 34.0449 27.4609 35.3926 28.3398C36.8105 29.2773 37.8711 30.3145 38.5742 31.4512C39.2773 32.5762 39.6289 33.8945 39.6289 35.4062ZM57.8237 43H52.5327L54.9409 31.5215C55.1284 30.7246 55.2221 30.0273 55.2221 29.4297C55.2221 27.9883 54.5893 27.2676 53.3237 27.2676C52.2455 27.2676 51.267 27.9355 50.3881 29.2715C49.5092 30.6074 48.8178 32.4707 48.3139 34.8613L46.5912 43H41.3002L47.101 15.6484H52.392C51.935 17.7695 51.5834 19.3984 51.3373 20.5352C51.0912 21.6719 50.5873 23.4824 49.8256 25.9668H49.9662C50.6928 25.0645 51.5014 24.3438 52.392 23.8047C53.2827 23.2539 54.3139 22.9785 55.4858 22.9785C57.103 22.9785 58.351 23.4707 59.2299 24.4551C60.1205 25.4277 60.5659 26.8223 60.5659 28.6387C60.5659 29.4941 60.4311 30.5488 60.1616 31.8027L57.8237 43ZM75.122 30.7656C75.122 28.457 74.2841 27.3027 72.6083 27.3027C71.7294 27.3027 70.9384 27.6602 70.2352 28.375C69.5438 29.0898 68.9755 30.1387 68.5302 31.5215C68.0966 32.9043 67.8798 34.3281 67.8798 35.793C67.8798 37.9609 68.7587 39.0449 70.5165 39.0449C71.3954 39.0449 72.1864 38.6875 72.8895 37.9727C73.5927 37.2461 74.1376 36.2441 74.5243 34.9668C74.9227 33.6777 75.122 32.2773 75.122 30.7656ZM80.4481 30.7656C80.4481 33.2383 80.0321 35.4297 79.2001 37.3398C78.3798 39.25 77.1903 40.7324 75.6317 41.7871C74.0731 42.8301 72.2216 43.3516 70.077 43.3516C67.7919 43.3516 65.9637 42.666 64.5927 41.2949C63.2333 39.9121 62.5536 38.0781 62.5536 35.793C62.5536 33.2969 62.9696 31.0762 63.8016 29.1309C64.6454 27.1738 65.8583 25.6621 67.4403 24.5957C69.0223 23.5176 70.8739 22.9785 72.995 22.9785C75.2919 22.9785 77.1083 23.6699 78.4442 25.0527C79.7802 26.4355 80.4481 28.3398 80.4481 30.7656ZM95.637 27.8828C94.9105 29.9688 94.1898 31.8379 93.4749 33.4902L89.3792 43H83.6839L82.7874 23.3477H87.7269L87.7972 32.0488L87.7269 34.9844L87.6038 37.9902H87.6741C87.7445 37.7559 87.8265 37.5156 87.9202 37.2695C88.014 37.0117 88.3128 36.209 88.8167 34.8613C89.3206 33.5137 89.5902 32.8164 89.6253 32.7695L93.6859 23.3477H99.4515V32.7695C99.4515 34.4336 99.3929 36.1738 99.2757 37.9902H99.3812L99.8734 36.584C100.729 34.1465 101.285 32.6348 101.543 32.0488L105.393 23.3477H110.789L101.473 43H95.6722L95.5667 33.8594C95.5667 32.043 95.6253 30.0508 95.7425 27.8828H95.637ZM121.812 22.9785C123.523 22.9785 124.871 23.6113 125.855 24.877C126.851 26.1309 127.349 27.8887 127.349 30.1504C127.349 32.3887 126.945 34.5449 126.136 36.6191C125.34 38.6816 124.244 40.3223 122.849 41.541C121.455 42.748 119.92 43.3516 118.244 43.3516C117.271 43.3516 116.433 43.1348 115.73 42.7012C115.027 42.2676 114.377 41.5293 113.779 40.4863H113.638C113.498 42.3496 113.246 44.0781 112.883 45.6719L111.617 51.6484H106.326L112.338 23.3477H116.381L116.082 26.3359H116.24C117.857 24.0977 119.715 22.9785 121.812 22.9785ZM119.685 27.2676C118.888 27.2676 118.115 27.666 117.365 28.4629C116.627 29.248 116.029 30.3027 115.572 31.627C115.127 32.9395 114.904 34.3926 114.904 35.9863C114.904 36.9238 115.121 37.6738 115.554 38.2363C115.988 38.7988 116.586 39.0801 117.347 39.0801C118.133 39.0801 118.883 38.6758 119.597 37.8672C120.312 37.0586 120.886 35.9512 121.32 34.5449C121.765 33.127 121.988 31.7324 121.988 30.3613C121.988 28.2988 121.22 27.2676 119.685 27.2676ZM133.468 43H128.177L133.978 15.6484H139.269L133.468 43ZM143.911 43.3516C142.188 43.3516 140.829 42.7305 139.833 41.4883C138.848 40.2344 138.356 38.4824 138.356 36.2324C138.356 33.9121 138.778 31.7031 139.622 29.6055C140.465 27.4961 141.573 25.8672 142.944 24.7188C144.315 23.5586 145.821 22.9785 147.462 22.9785C148.598 22.9785 149.577 23.2246 150.397 23.7168C151.229 24.209 151.874 24.9238 152.331 25.8613H152.471L153.473 23.3477H157.551L153.368 43H149.342L149.589 40.4512H149.518C147.948 42.3848 146.079 43.3516 143.911 43.3516ZM145.985 39.0801C146.794 39.0801 147.573 38.6875 148.323 37.9023C149.073 37.1172 149.676 36.0566 150.133 34.7207C150.59 33.373 150.819 31.8496 150.819 30.1504C150.819 29.3184 150.59 28.6328 150.133 28.0938C149.688 27.543 149.096 27.2676 148.358 27.2676C147.561 27.2676 146.799 27.6895 146.073 28.5332C145.358 29.377 144.784 30.4902 144.35 31.873C143.928 33.2559 143.717 34.627 143.717 35.9863C143.717 37.0176 143.911 37.791 144.298 38.3066C144.696 38.8223 145.258 39.0801 145.985 39.0801ZM165.779 39.0801C166.541 39.0801 167.49 38.875 168.627 38.4648V42.4199C167.326 43.041 165.768 43.3516 163.951 43.3516C162.193 43.3516 160.899 42.9824 160.066 42.2441C159.246 41.5059 158.836 40.3633 158.836 38.8164C158.836 38.2305 158.906 37.5742 159.047 36.8477L161.068 27.373H158.397L158.906 24.7891L162.352 23.3125L164.672 19.1641H168.082L167.221 23.3477H172.195L171.316 27.373H166.359L164.338 36.8477C164.268 37.1992 164.232 37.5098 164.232 37.7793C164.232 38.6465 164.748 39.0801 165.779 39.0801ZM182.304 26.793C181.273 26.793 180.3 27.2617 179.386 28.1992C178.472 29.1367 177.875 30.2793 177.593 31.627H178.384C180.201 31.627 181.613 31.3457 182.621 30.7832C183.64 30.209 184.15 29.4355 184.15 28.4629C184.15 27.3496 183.535 26.793 182.304 26.793ZM179.421 43.3516C176.96 43.3516 175.05 42.6895 173.691 41.3652C172.332 40.041 171.652 38.1719 171.652 35.7578C171.652 33.332 172.132 31.123 173.093 29.1309C174.066 27.127 175.378 25.6035 177.031 24.5605C178.683 23.5059 180.552 22.9785 182.638 22.9785C184.712 22.9785 186.33 23.459 187.49 24.4199C188.65 25.3691 189.23 26.6758 189.23 28.3398C189.23 30.5312 188.251 32.2246 186.294 33.4199C184.337 34.6035 181.542 35.1953 177.91 35.1953H177.013L176.978 35.5645V35.916C176.978 36.9824 177.277 37.8262 177.875 38.4473C178.484 39.0566 179.351 39.3613 180.476 39.3613C181.496 39.3613 182.421 39.25 183.253 39.0273C184.085 38.8047 185.093 38.4121 186.277 37.8496V41.8398C184.261 42.8477 181.976 43.3516 179.421 43.3516ZM203.276 36.5137C203.276 38.7168 202.544 40.4102 201.079 41.5938C199.626 42.7656 197.599 43.3516 194.997 43.3516C193.743 43.3516 192.647 43.2637 191.71 43.0879C190.784 42.9121 189.917 42.6191 189.108 42.209V37.8496C190.948 38.9043 192.817 39.4316 194.716 39.4316C195.653 39.4316 196.421 39.2441 197.019 38.8691C197.616 38.4824 197.915 37.9609 197.915 37.3047C197.915 36.8008 197.698 36.3496 197.265 35.9512C196.831 35.5527 196.063 35.0488 194.962 34.4395C193.544 33.6426 192.554 32.8516 191.991 32.0664C191.429 31.2695 191.147 30.332 191.147 29.2539C191.147 27.2617 191.792 25.7207 193.081 24.6309C194.382 23.5293 196.233 22.9785 198.636 22.9785C200.991 22.9785 203.118 23.5352 205.017 24.6484L203.276 28.4277C201.636 27.4434 200.124 26.9512 198.741 26.9512C198.073 26.9512 197.534 27.1035 197.124 27.4082C196.714 27.7012 196.509 28.0996 196.509 28.6035C196.509 29.0605 196.696 29.4648 197.071 29.8164C197.446 30.1562 198.149 30.5898 199.181 31.1172C200.622 31.8555 201.665 32.6582 202.31 33.5254C202.954 34.3926 203.276 35.3887 203.276 36.5137Z" fill="white"/>
<path d="M34.7891 57.0703C34.4297 58.2109 33.9805 59.3789 33.4414 60.5742L29.6445 69H25.6836L25.1562 51.8672H28.5195L28.5898 61.2188C28.5898 61.625 28.5742 62.3008 28.543 63.2461C28.5117 64.1914 28.4727 64.8711 28.4258 65.2852H28.4961C28.668 64.7852 28.9297 64.082 29.2812 63.1758C29.6328 62.2617 29.8672 61.6914 29.9844 61.4648L34.3086 51.8672H37.4727L37.7188 62.0977C37.7188 63.2383 37.6836 64.3008 37.6133 65.2852H37.6836C38.0195 64.2773 38.5312 62.9141 39.2188 61.1953L43.0859 51.8672H46.707L39.125 69H35.0703L34.8125 60.5508L34.7891 58.9219C34.7891 58.2344 34.8047 57.6172 34.8359 57.0703H34.7891ZM52.9423 60.8438C52.9423 59.3047 52.3838 58.5352 51.2666 58.5352C50.6806 58.5352 50.1533 58.7734 49.6845 59.25C49.2236 59.7266 48.8447 60.4258 48.5478 61.3477C48.2588 62.2695 48.1142 63.2188 48.1142 64.1953C48.1142 65.6406 48.7002 66.3633 49.872 66.3633C50.458 66.3633 50.9853 66.125 51.4541 65.6484C51.9228 65.1641 52.2861 64.4961 52.5439 63.6445C52.8095 62.7852 52.9423 61.8516 52.9423 60.8438ZM56.4931 60.8438C56.4931 62.4922 56.2158 63.9531 55.6611 65.2266C55.1142 66.5 54.3213 67.4883 53.2822 68.1914C52.2431 68.8867 51.0088 69.2344 49.5791 69.2344C48.0556 69.2344 46.8369 68.7773 45.9228 67.8633C45.0166 66.9414 44.5634 65.7188 44.5634 64.1953C44.5634 62.5312 44.8408 61.0508 45.3955 59.7539C45.958 58.4492 46.7666 57.4414 47.8213 56.7305C48.8759 56.0117 50.1103 55.6523 51.5244 55.6523C53.0556 55.6523 54.2666 56.1133 55.1572 57.0352C56.0478 57.957 56.4931 59.2266 56.4931 60.8438ZM66.455 55.6523C66.9159 55.6523 67.2909 55.6953 67.58 55.7812L66.8066 59.1797C66.455 59.0547 66.0644 58.9922 65.6347 58.9922C64.7284 58.9922 63.9316 59.3516 63.2441 60.0703C62.5644 60.7812 62.08 61.8047 61.7909 63.1406L60.5488 69H57.0214L59.7988 55.8984H62.4941L62.248 58.3242H62.3183C63.4667 56.543 64.8456 55.6523 66.455 55.6523ZM69.6903 69H66.163L70.0302 50.7656H73.5575L69.6903 69ZM76.6522 69.2344C75.5037 69.2344 74.5975 68.8164 73.9334 67.9805C73.2772 67.1445 72.9491 65.9727 72.9491 64.4648C72.9491 62.9336 73.2264 61.4727 73.7811 60.082C74.3436 58.6836 75.0819 57.5977 75.9959 56.8242C76.91 56.043 77.9178 55.6523 79.0194 55.6523C79.66 55.6523 80.2108 55.7969 80.6717 56.0859C81.1405 56.375 81.5819 56.8711 81.9959 57.5742H82.0897L82.1131 57.2461C82.16 56.3867 82.2577 55.625 82.4061 54.9609L83.2967 50.7656H86.8241L82.9569 69H80.2733L80.4373 67.3008H80.3905C79.8358 67.9805 79.2537 68.4727 78.6444 68.7773C78.0428 69.082 77.3787 69.2344 76.6522 69.2344ZM78.1287 66.3867C78.6444 66.3867 79.1444 66.1211 79.6287 65.5898C80.1209 65.0508 80.5155 64.3359 80.8123 63.4453C81.1092 62.5547 81.2577 61.5977 81.2577 60.5742C81.2577 59.9492 81.1092 59.4492 80.8123 59.0742C80.5233 58.6992 80.1248 58.5117 79.617 58.5117C79.0858 58.5117 78.578 58.793 78.0936 59.3555C77.617 59.918 77.2342 60.6602 76.9452 61.582C76.6639 62.5039 76.5233 63.418 76.5233 64.3242C76.5233 65.6992 77.0584 66.3867 78.1287 66.3867Z" fill="#FD9A02"/>
<path d="M91.2944 14.4006C43.7944 -3.59943 -14.7056 1.90057 11.1729 33.9006C-26.2056 0.90057 37.7944 -12.5994 91.2944 14.4006Z" fill="#FD9A02"/>
<path d="M99 73.9969C126.121 82.4479 183 77.4999 154.5 50.9999C194 73.4999 138.968 92.4947 99 73.9969Z" fill="#FD9A02"/>
</svg>
